<?xml version="1.0" encoding="utf-8"?>
<!-- Generator: Adobe Illustrator 26.0.0, SVG Export Plug-In . SVG Version: 6.00 Build 0)  -->
<svg version="1.1" id="Layer_1" xmlns="http://www.w3.org/2000/svg" xmlns:xlink="http://www.w3.org/1999/xlink" x="0px" y="0px"
	 viewBox="0 0 774.8 506.3" style="enable-background:new 0 0 774.8 506.3;" xml:space="preserve">
<style type="text/css">
	.st0{fill:#33B6AE;}
	.st1{fill:#FFFFFF;}
	.st2{opacity:0.25;fill:#1C9B92;}
	.st3{fill:url(#SVGID_1_);}
	.st4{fill:#36B5AE;}
</style>
<g>
	<g>
		<g>
			<path class="st0" d="M349.2,138.1c2.6,0,3.8,0.9,3.8,2.7c0,7.4-10.2,28.6-30.6,63.5c0.9,3.3,2.2,7.1,4,11.4l54.2-41.3
				c20.7-15.8,34.8-25.9,42-30.3c16.3-9.7,32.2-14.6,47.9-14.6c4.5,0,8.6,0.7,12.3,2.2c2.3,0.9,3.4,2.4,3.4,4.7s-0.6,3.4-1.8,3.4
				c-0.7,0-1.5-0.5-2.2-1.4c-0.8-1-3.1-1.4-6.9-1.4c-3.8,0-10,1-18.7,2.9c-13.6,3-29,9.8-46.2,20.3c-10.8,6.6-25.2,16.9-43.3,30.7
				c-18.1,13.9-31.1,23.5-39.2,28.7c6.2,13,14.1,25.1,23.9,36.2c14.9,17.4,28.3,26,40.2,26c5.8,0,8.7-2.2,8.7-6.7
				c0-0.9-0.1-1.7-0.2-2.6c-0.2-0.9,0-1.8,0.6-3.1c0.6-1.2,1.4-1.8,2.2-1.8c1.6,0,2.6,1.8,3.1,5.6c0.1,0.6,0.2,1.2,0.2,1.8
				c0,3.8-2,7-5.9,9.5c-3.9,2.5-8.6,3.8-14,3.8s-9.9-0.9-13.5-2.6c-9.6-4.7-19.2-13.1-29-24.9c-9.8-11.9-17.2-24.3-22.5-37.5
				c-6.6,3.8-12.2,6-16.6,6.4c-8.1,10.6-18.1,20.8-30,30.7c-6.4,5.4-13.4,9.8-20.9,13.2c-7.5,3.4-14.7,5-21.6,5
				c-9.8,0-17.4-2.5-22.7-7.4c-5.4-4.9-8-12.4-8-22.5c0-5,1-9.6,2.9-13.9c6.2-13.7,15.5-23.1,28-28.3c6.9-3,13.8-4.6,20.7-4.6
				c6.9,0,11.4,2.2,13.8,6.7c0.9,1.6,1.3,3.3,1.3,5c0,1.8-0.2,2.9-0.7,3.4c-0.5,0.5-1.1,0.1-2-1.3c-2.9-5.4-6-8.3-9.3-8.9
				c-2.2-0.2-3.8-0.4-4.7-0.4c-9.4,0-18.3,3.9-26.6,11.9c-10.6,10.3-16,21.5-16,33.5c0,13.1,7.4,20.5,22.2,22.2c0.5,0,1,0,1.4,0
				c5.4,0,12.2-2.4,20.6-7.1c13.6-7.8,28.1-21.1,43.5-40c-2.8-2.6-4.2-6.3-4.2-11.3s1.8-9.7,5.5-14.1c3.7-4.4,8.7-6.6,15.2-6.6
				c1.8,0,3.5,0.2,5.1,0.6c6.1-10.2,11.9-21.2,17.6-33c5.7-11.9,8.6-18.7,8.6-20.5c0-0.2-0.4-0.4-1.1-0.4c-0.7,0-5,1.9-12.7,5.8
				c-7.7,3.8-13.2,6.8-16.5,9s-7.3,5.6-12,10.2s-7.1,8.5-7.1,11.4c0,1.4,1,2.6,2.8,4c1.8,1.4,5.3,2,10.2,2c0.6,0.2,0.9,0.6,0.9,1
				c0,0.4-1.7,0.9-5,1.4c-3.4,0.6-6,0.8-7.9,0.8c-4.4,0-6.6-1.8-6.6-5.4c0-4.2,2.6-9.4,7.8-15.3c5.2-5.9,10.9-10.6,17.1-14
				C332.8,143,344.3,138.1,349.2,138.1z M313.3,204c-1.4-0.6-3-0.9-4.8-0.9c-1.8,0-3.5,1.1-5.3,3.3c-1.8,2.2-2.6,4.5-2.6,7
				c0,2.5,0.6,4.6,2,6.2C308.5,211.2,312.1,206,313.3,204z M320.2,219.7c-1-2.4-1.8-4.9-2.4-7.3c-2.4,3.5-4.9,7-7.3,10.3
				c1.2,0,2.3-0.1,3.3-0.2C314.8,222.3,316.9,221.3,320.2,219.7z"/>
			<path class="st0" d="M428.6,210.5l2.6-0.6c1.4,0,2.6,0.6,3.8,1.6c1.2,1.1,1.8,1.9,1.8,2.6c0,0.6-3.8,6.5-11.3,17.5
				c-7.5,11.1-11.3,18.8-11.3,23.2c0,0.4,0.1,0.7,0.2,1.1c0.6,2.8,1.9,4.2,4,4.2c6.3,0,17.9-10.4,34.6-31.3c0.4-0.5,0.8-0.7,1.3-0.7
				s0.7,0.5,0.7,1.4c0,0.9-0.6,2.1-1.6,3.5c-15.5,20.7-27.4,31.1-35.5,31.1c-1.1,0-2.2-0.2-3.1-0.6c-5.4-2.1-8-6.1-8-12
				c0-2.1,0.2-4.1,0.7-6.2l-11.3,10.9c-7.1,6.3-12.3,9.4-15.5,9.4s-6.2-1-9.2-3.1c-3.3-2.4-4.9-5.6-4.9-9.6
				c0-8.9,6.2-19.5,18.6-31.7c12.3-12.3,23.7-18.5,34-18.5c4,0,6.6,1.4,8,4.2c0.4,1,0.6,1.8,0.9,2.5
				C428.3,210.2,428.5,210.5,428.6,210.5z M374.2,255.3c0,4.4,1.5,6.6,4.6,6.6c7,0,16.6-7.7,28.7-23.1l19.3-26.6
				c-1-1.7-2.6-2.6-4.7-2.6c-7.4,0-17.2,5.8-29.5,17.2C380.3,238.3,374.2,247.8,374.2,255.3z"/>
			<path class="st0" d="M480.1,265.9c-9.1,0-13.6-5-13.6-15.1c0-5.1,1.4-10.6,4-16.7c2.6-6.1,5.6-11.1,8.7-15.3
				c-0.6,0.2-1.4,0.2-2.4,0.2c-2.9,0-5.4-2.1-7.3-6.2l-13.5,17.5c-7.5,9.4-11.9,14-13.1,14c-0.6,0-0.9-0.2-0.9-0.7
				c0-1.2,1-3,3.1-5.3c10.6-12.3,18-22.6,22.3-31.1c2.8-10.6,6.3-15.9,10.6-15.9c2.8,0,4.2,1.2,4.2,3.6c0,2.4-1.5,5.5-4.6,9.3
				l-4.4,5.8c0,2.6,1.8,3.8,5.6,3.8c2.2,0,4.6-0.8,7.3-2.4l4.7-2.9c0.2-0.2,0.9-0.2,1.8-0.2s2,0.6,3.1,1.8c1.1,1.2,1.4,2.3,1.1,3.3
				l-12.5,15.8c-7.8,9.9-11.6,17.8-11.6,23.5c0,5.8,2.6,8.6,8,8.6c5.6,0,12.4-3,20.6-8.9c4.9-3.5,9.3-7.4,13.3-11.9
				c3.8-4.4,5.8-6.6,6.2-6.6c0.9,0,1.3,0.5,1.3,1.4s-0.6,2-1.6,3.2l-5.8,6.6c-3.3,3.4-6.9,6.6-10.9,9.8
				C494.2,262.2,486.3,265.9,480.1,265.9z"/>
			<path class="st0" d="M575.2,210.5l2.6-0.6c1.4,0,2.6,0.6,3.8,1.6c1.2,1.1,1.8,1.9,1.8,2.6c0,0.6-3.8,6.5-11.3,17.5
				c-7.5,11.1-11.3,18.8-11.3,23.2c0,0.4,0.1,0.7,0.2,1.1c0.6,2.8,1.9,4.2,4,4.2c6.3,0,17.9-10.4,34.6-31.3c0.4-0.5,0.8-0.7,1.3-0.7
				s0.7,0.5,0.7,1.4c0,0.9-0.6,2.1-1.6,3.5c-15.5,20.7-27.4,31.1-35.5,31.1c-1.1,0-2.2-0.2-3.1-0.6c-5.4-2.1-8-6.1-8-12
				c0-2.1,0.2-4.1,0.7-6.2l-11.3,10.9c-7.1,6.3-12.3,9.4-15.5,9.4s-6.2-1-9.2-3.1c-3.3-2.4-4.9-5.6-4.9-9.6
				c0-8.9,6.2-19.5,18.6-31.7c12.3-12.3,23.7-18.5,34-18.5c4,0,6.6,1.4,8,4.2c0.4,1,0.6,1.8,0.9,2.5
				C574.9,210.2,575.1,210.5,575.2,210.5z M520.8,255.3c0,4.4,1.5,6.6,4.6,6.6c7,0,16.6-7.7,28.7-23.1l19.3-26.6
				c-1-1.7-2.6-2.6-4.7-2.6c-7.4,0-17.2,5.8-29.5,17.2C526.9,238.3,520.8,247.8,520.8,255.3z"/>
			<path class="st0" d="M603.4,267.3c-1.4,0-2.6-0.2-3.6-0.6c-7.8-2.2-11.6-6.6-11.6-13.1c0-8.5,5.4-18.3,16-29.5
				c10.6-11.1,20.3-16.7,28.7-16.7c2.8,0,5,0.7,6.8,2.2c1.8,1.5,2.6,3.6,2.6,6.2c0,2.6-0.8,5.4-2.4,8.2c-1.6,2.9-3.9,4.2-7.1,4.2
				c-3.1,0-4.7-1-4.7-2.9c0-1.4,0.8-3.4,2.5-6.1c1.6-2.7,2.5-4.2,2.5-4.4c0-0.2-0.2-0.2-0.6-0.2c-3.4,0.4-8,2.8-13.9,7.3
				c-5.8,4.5-9.9,8.2-12.1,11.3l-7.1,10.3c-1.2,1.9-2.1,4.2-2.6,6.9c-0.6,2.6-0.8,4.6-0.8,6c0,1.4,0.7,2.9,2.2,4.6
				c1.5,1.7,3.7,2.6,6.5,2.6c6.1,0,13.6-3.5,22.6-10.6c9-7.1,15.9-13.9,20.7-20.3c0.6-0.7,1.4-1.1,2.2-1.1c0.9,0,1.3,0.2,1.3,0.7
				s-0.3,1.1-0.9,1.8c-6.6,8.9-14.7,16.6-23.9,23.2C617.3,264,609.6,267.3,603.4,267.3z"/>
			<path class="st0" d="M684.2,264.2c-7.1,0-10.7-4.2-10.7-12.6c0-4.7,1.7-10,5-15.8c3.4-5.8,7.4-12.5,12.3-20.3
				c-15.5,7.8-29.6,19.2-42.2,34.3c-7,10.6-11.1,15.9-12.3,15.9c-3.5,0-5.3-1-5.3-3.1c0-1.1,0.7-3,2.2-5.8
				c11.8-21,20.7-36.4,26.7-46c14.4-23.1,24.6-35.7,30.6-37.6c0.2-0.2,0.5-0.2,0.7-0.2c1.6,0,2.6,1.3,3.3,3.8
				c-0.4,2.6-6.6,11.8-18.9,27.6c-12.7,16.1-19.9,26.7-21.6,31.6c4.5-3.3,12.3-8.8,23.5-16.6c12-8.3,19.9-12.6,23.9-12.6
				c3.8,0,5.8,1.5,5.8,4.6c0,0.5,0,0.8-0.1,1c-0.1,0.2-4.2,5.9-12.7,17.2c-8.3,11.3-12.6,19.6-12.6,24.9c0,2.8,1,4.2,3.1,4.2
				c6.6-0.2,16.3-8.1,29.5-23.6c1.1-1.1,1.9-1.6,2.5-1.6s0.8,0.4,0.8,1.1c0,2.4-6,9-18,19.6C692,261,686.8,264.2,684.2,264.2z"/>
			<path class="st0" d="M716,266.9c-6.2,0-9.3-4-9.3-12c0-6.6,3.6-15.6,10.7-27.2c7.1-11.6,12.9-17.5,17.3-17.5
				c1.2,0,2.6,0.5,4.1,1.4c1.5,1,2.2,1.9,2.2,2.9c-0.6,0.9-1.4,1.8-2.2,2.8c-0.9,1-1.8,2.2-2.7,3.4c-1,1.2-2.3,3-4,5.2
				s-3.4,4.4-4.9,6.5c-9.1,11.8-13.6,19.9-13.6,24.3s1.5,6.6,4.6,6.6c2.6,0,6-1.4,10.3-4.2c10.2-6.3,18.3-13.2,24.2-20.7
				c2.2-2.8,3.7-4.2,4.5-4.2c0.8,0,1.2,0.5,1.2,1.4c0,1-1.4,2.9-4.2,5.8c-2.8,2.9-5,5.2-6.6,6.9c-1.6,1.7-2.7,2.8-3.4,3.4
				c-0.6,0.6-1.8,1.6-3.4,3.1c-1.6,1.5-2.9,2.6-3.8,3.2c-0.9,0.6-2.1,1.5-3.6,2.7c-1.6,1.2-3,2.1-4.2,2.6s-2.6,1.2-4.2,1.9
				C722.5,266.4,719.5,266.9,716,266.9z M754.1,192.4c1.6,1.1,2.5,2.5,2.5,4.1s-0.7,3-2.2,4.1c-1.5,1.1-3.2,1.8-5,1.8
				c-1.8,0-3.5-0.6-5-2c-1.5-1.4-2.2-2.9-2.2-4.6c0-3.4,2.3-5.1,6.9-5.1C750.7,190.7,752.5,191.3,754.1,192.4z"/>
		</g>
	</g>
	<rect x="419.3" y="278.3" class="st0" width="337.3" height="49.9"/>
	<g>
		<path class="st1" d="M473.8,290v7.3h-22.3v4.3h18.8v7.1h-18.8v11.4h-10.1v-30.2L473.8,290L473.8,290z"/>
		<path class="st1" d="M515.1,290v22.4h19v7.8H505V290H515.1z"/>
		<path class="st1" d="M592.8,291.3c3,1.4,5.4,3.3,7,5.7c1.7,2.4,2.6,5.1,2.6,8.2c0,3-0.9,5.7-2.6,8.1c-1.7,2.4-4,4.2-7,5.6
			c-3,1.4-6.3,2.1-10.1,2.1c-3.6,0-6.9-0.7-9.9-2.1c-3-1.4-5.4-3.3-7.2-5.7c-1.8-2.4-2.6-5.1-2.6-8c0-3,0.9-5.7,2.6-8.1
			c1.8-2.4,4.2-4.3,7.2-5.7c3-1.4,6.3-2.1,9.9-2.1C586.4,289.3,589.8,290,592.8,291.3z M587.1,312.3c1.4-0.6,2.6-1.6,3.4-2.8
			c0.8-1.2,1.3-2.6,1.3-4.3s-0.5-3.1-1.4-4.4c-0.9-1.2-2-2.2-3.4-2.8c-1.4-0.6-2.9-1-4.4-1c-1.5,0-3,0.3-4.4,1
			c-1.4,0.6-2.5,1.6-3.4,2.8c-0.9,1.2-1.3,2.6-1.3,4.3c0,1.7,0.4,3.1,1.3,4.3c0.9,1.2,2,2.2,3.4,2.8c1.4,0.6,2.9,1,4.4,1
			C584.3,313.3,585.7,312.9,587.1,312.3z"/>
		<path class="st1" d="M657.5,320.1l-8.3-9.8H643v9.8h-9.6v-30.2h22.7c2.6,0,4.7,0.4,6.7,1.3c1.9,0.9,3.4,2,4.5,3.5s1.6,3.3,1.6,5.2
			v0.2c0,2.6-0.7,4.7-2.2,6.4c-1.5,1.7-3.6,2.8-6.2,3.4l8.7,10.2L657.5,320.1L657.5,320.1z M658.8,297.9c-0.5-0.5-1-0.8-1.8-0.9
			c-0.7-0.1-1.8-0.2-3.1-0.2h-1.4c-2,0.1-5.2,0.1-9.6,0.1v6.5h11h0.1c1.4,0,2.4-0.1,3.1-0.2s1.3-0.4,1.8-0.8
			c0.5-0.5,0.6-1.2,0.6-2.2C659.5,299.1,659.3,298.4,658.8,297.9z"/>
		<path class="st1" d="M739.5,320.1h-10.2l-2.8-5.2h-17.1l-2.8,5.2h-10.2l16.3-30.2h10.3L739.5,320.1z M718.1,299.2l-4.9,9h9.8
			L718.1,299.2z"/>
	</g>
	<path class="st2" d="M252.2,108.1c0,0-71.4,28.4-86.4,142.7c-15,114.3-24.2-162.4,97.7-194.6h6.6L252.2,108.1z"/>
	<linearGradient id="SVGID_1_" gradientUnits="userSpaceOnUse" x1="216.5511" y1="127.353" x2="205.6279" y2="326.398">
		<stop  offset="0" style="stop-color:#36B5AE"/>
		<stop  offset="1" style="stop-color:#1C9B90"/>
	</linearGradient>
	<path class="st3" d="M192.8,489.2c0,0-124.8-429.6,83.7-448.7c0,0,1.2,98.6-78.9,144c0,0,54.8-59.7,61.2-121.5
		c0,0-91.6,32.7-91.6,219.9C167.2,283,162,334.3,192.8,489.2z"/>
	<path class="st2" d="M126.2,74.6c0,0-28.1,58-7.2,132.6c0,0-55.6-74.1-35.2-166.7C83.7,40.6,99.3,28,126.2,74.6z"/>
	<path class="st2" d="M53.4,145.3c0,0,0.9,20.3,20.1,47.1s-54-39.5-44.1-47.1C39.4,137.7,53.4,145.3,53.4,145.3z"/>
	<path class="st4" d="M71.2,152.7c0,0-9.1-15.5-54.9-17.5c0,0,26.3,90,130.3,109.9c0,0-70.5-69.3-58.9-201.9
		c0,0,50.6,27.5,76.9,87.6c0,0-1.2-52.6-84.1-113.5c0,0-31.9,97.2,26.3,196.3c0,0-41.8-15.5-69.7-67.3
		C36.9,146.3,49.2,141.2,71.2,152.7z"/>
</g>
</svg>
